<svg id="moving-particles" viewBox="0 0 530 490">
  <g class="move">
    <rect x="85.25" y="297.06" width="10.39" height="2.96" rx="0.94" ry="0.94" transform="translate(187.51 2.09) rotate(34.98)" fill="#1a237e"/>
    <rect x="85.25" y="297.06" width="10.39" height="2.96" rx="0.94" ry="0.94" transform="translate(-206.01 201.48) rotate(-55.02)" fill="#1a237e"/>
  </g>
  <g class="move">
    <rect x="23.07" y="98.85" width="10.39" height="2.96" rx="0.94" ry="0.94" transform="translate(62.63 1.93) rotate(34.98)" fill="#80d8ff"/>
    <rect x="23.07" y="98.85" width="10.39" height="2.96" rx="0.94" ry="0.94" transform="translate(-70.15 65.96) rotate(-55.01)" fill="#80d8ff"/>
  </g>
  <g class="move">
    <rect x="339.31" y="171.84" width="10.39" height="2.96" rx="0.94" ry="0.94" transform="matrix(0.82, 0.57, -0.57, 0.82, 161.63, -166.2)" fill="#1a237e"/>
    <rect x="339.31" y="171.84" width="10.39" height="2.96" rx="0.94" ry="0.94" transform="translate(4.98 356.2) rotate(-55.02)" fill="#1a237e"/>
  </g>
  <path class="move" d="M5.94,182.36,2,175.74a.6.6,0,0,1,.51-.91l7.7-.11a.6.6,0,0,1,.53.9L7,182.34A.6.6,0,0,1,5.94,182.36Z" fill="#1a237e"/>
  <path class="move" d="M251,110.81a5.24,5.24,0,1,1,5.24-5.24A5.25,5.25,0,0,1,251,110.81Zm0-7.76a2.52,2.52,0,1,0,2.52,2.52A2.52,2.52,0,0,0,251,103.06Z" fill="#fff"/>
  <path class="move" d="M40.3,261.68a1.63,1.63,0,0,1-1.1-2.85l2.73-2.46a2.43,2.43,0,0,1,3.41.13l1.31,1.37L48.56,256a1.63,1.63,0,0,1,2.27,2.35l-2.51,2.43a2.31,2.31,0,0,1-1.75.69,2.42,2.42,0,0,1-1.72-.76l-1.33-1.39-2.13,1.93A1.64,1.64,0,0,1,40.3,261.68Z" fill="#80d8ff"/>
  <path class="move" d="M165.69,266.06a1.63,1.63,0,0,1-1.1-2.85l2.73-2.46a2.43,2.43,0,0,1,3.41.13l1.31,1.37L174,260.4a1.63,1.63,0,1,1,2.27,2.35l-2.51,2.43a2.31,2.31,0,0,1-1.75.69,2.42,2.42,0,0,1-1.72-.76l-1.33-1.39-2.13,1.93A1.64,1.64,0,0,1,165.69,266.06Z" fill="#1a237e"/>
  <path class="move" d="M344.51,99.59l3.85-6.66a.6.6,0,0,1,1,0l3.85,6.66a.6.6,0,0,1-.52.91H345A.6.6,0,0,1,344.51,99.59Z" fill="#fff"/>
  <g class="move">
    <rect x="447.35" y="167.02" width="10.39" height="2.96" rx="0.94" ry="0.94" transform="translate(178.38 -229.02) rotate(34.98)" fill="#fff"/>
    <rect x="447.35" y="167.02" width="10.39" height="2.96" rx="0.94" ry="0.94" transform="translate(55.02 442.66) rotate(-55.02)" fill="#fff"/>
  </g>
</svg>
