<svg id="moving-particles" viewBox="0 0 530 490">
  <g class="move">
    <rect x="85.25" y="297.06" width="10.39" height="2.96" rx="0.94" ry="0.94" transform="translate(187.51 2.09) rotate(34.98)" fill="#1a237e"/>
    <rect x="85.25" y="297.06" width="10.39" height="2.96" rx="0.94" ry="0.94" transform="translate(-206.01 201.48) rotate(-55.02)" fill="#1a237e"/>
  </g class="move">
  <g class="move">
    <rect x="23.07" y="98.85" width="10.39" height="2.96" rx="0.94" ry="0.94" transform="translate(62.63 1.93) rotate(34.98)" fill="#80d8ff"/>
    <rect x="23.07" y="98.85" width="10.39" height="2.96" rx="0.94" ry="0.94" transform="translate(-70.15 65.96) rotate(-55.01)" fill="#80d8ff"/>
  </g>
  <g class="move">
    <rect x="227.12" y="141.87" width="54.87" height="41.81" transform="translate(0.71 -1.1) rotate(0.25)" fill="#fff"/>
    <rect x="233.9" y="148.03" width="41.32" height="29.49" transform="translate(0.71 -1.1) rotate(0.25)" fill="#e3f2fd"/>
    <circle cx="255.66" cy="154.89" r="2.75" transform="translate(99.67 409.88) rotate(-89.75)" fill="#fff"/>
    <polygon points="233.89 164.34 243.26 155.06 257.3 169.22 265.25 161.34 275.18 171.35 275.15 177.61 233.83 177.43 233.89 164.34" fill="#80d8ff"/>
  </g>
  <g class="move">
    <path d="M125.64,175.19h38.65a0,0,0,0,1,0,0v26.95a4.14,4.14,0,0,1-4.14,4.14H129.78a4.14,4.14,0,0,1-4.14-4.14V175.19A0,0,0,0,1,125.64,175.19Z" fill="#fff"/>
    <polygon points="138.52 181.97 133.48 181.97 129.52 175.19 134.56 175.19 138.52 181.97" fill="#1a237e"/>
    <polygon points="146.28 181.97 141.24 181.97 137.28 175.19 142.32 175.19 146.28 181.97" fill="#1a237e"/>
    <polygon points="154.04 181.97 149.01 181.97 145.04 175.19 150.08 175.19 154.04 181.97" fill="#1a237e"/>
    <polygon points="161.81 181.97 156.77 181.97 152.81 175.19 157.84 175.19 161.81 181.97" fill="#1a237e"/>
    <polygon points="164.28 181.97 160.32 175.19 164.28 175.19 164.28 181.97" fill="#1a237e"/>
    <polygon points="125.64 175.19 125.64 181.83 125.72 181.97 130.76 181.97 126.79 175.19 125.64 175.19" fill="#1a237e"/>
    <rect x="125.64" y="181.83" width="38.65" height="0.89" fill="#e3f2fd"/>
    <polygon points="150.76 203.14 144.96 200.15 139.15 203.13 140.19 196.69 135.57 192.09 142.02 191.09 144.97 185.27 147.91 191.09 154.35 192.1 149.72 196.69 150.76 203.14" fill="#64b5f6"/>
  </g>
  <g class="move">
    <path d="M128.46,55H102.65A7.66,7.66,0,0,0,95,62.59v9.1a7.65,7.65,0,0,0,7.18,7.61V86l6.67-6.67h19.6a7.66,7.66,0,0,0,7.63-7.63v-9.1A7.66,7.66,0,0,0,128.46,55Z" fill="#e3f2fd"/>
    <g>
      <circle cx="105.63" cy="67.14" r="2.65" fill="#1a237e"/>
      <circle cx="115.55" cy="67.14" r="2.65" fill="#1a237e"/>
      <circle cx="125.48" cy="67.14" r="2.65" fill="#1a237e"/>
    </g>
  </g>
  <g class="move">
    <rect x="339.31" y="171.84" width="10.39" height="2.96" rx="0.94" ry="0.94" transform="matrix(0.82, 0.57, -0.57, 0.82, 161.63, -166.2)" fill="#1a237e"/>
    <rect x="339.31" y="171.84" width="10.39" height="2.96" rx="0.94" ry="0.94" transform="translate(4.98 356.2) rotate(-55.02)" fill="#1a237e"/>
  </g>
  <path class="move" d="M5.94,182.36,2,175.74a.6.6,0,0,1,.51-.91l7.7-.11a.6.6,0,0,1,.53.9L7,182.34A.6.6,0,0,1,5.94,182.36Z" fill="#1a237e"/>
  <path class="move" d="M251,110.81a5.24,5.24,0,1,1,5.24-5.24A5.25,5.25,0,0,1,251,110.81Zm0-7.76a2.52,2.52,0,1,0,2.52,2.52A2.52,2.52,0,0,0,251,103.06Z" fill="#fff"/>
  <path class="move" d="M40.3,261.68a1.63,1.63,0,0,1-1.1-2.85l2.73-2.46a2.43,2.43,0,0,1,3.41.13l1.31,1.37L48.56,256a1.63,1.63,0,0,1,2.27,2.35l-2.51,2.43a2.31,2.31,0,0,1-1.75.69,2.42,2.42,0,0,1-1.72-.76l-1.33-1.39-2.13,1.93A1.64,1.64,0,0,1,40.3,261.68Z" fill="#80d8ff"/>
  <path class="move" d="M165.69,266.06a1.63,1.63,0,0,1-1.1-2.85l2.73-2.46a2.43,2.43,0,0,1,3.41.13l1.31,1.37L174,260.4a1.63,1.63,0,1,1,2.27,2.35l-2.51,2.43a2.31,2.31,0,0,1-1.75.69,2.42,2.42,0,0,1-1.72-.76l-1.33-1.39-2.13,1.93A1.64,1.64,0,0,1,165.69,266.06Z" fill="#1a237e"/>
  <path class="move" d="M344.51,99.59l3.85-6.66a.6.6,0,0,1,1,0l3.85,6.66a.6.6,0,0,1-.52.91H345A.6.6,0,0,1,344.51,99.59Z" fill="#fff"/>
  <g class="clouds" >
    <path id="upper-lg" d="M365.9,35H349.25a.68.68,0,0,1-.68-.68V30.77a16.85,16.85,0,0,0-32.42-6.43.68.68,0,0,1-.41.38.67.67,0,0,1-.56-.06,9.1,9.1,0,0,0-13.55,9.54.68.68,0,0,1-.67.8H285.86a.68.68,0,1,1,0-1.36h14.32a9.92,9.92,0,0,1-.06-1.11,10.46,10.46,0,0,1,15.09-9.4,18.21,18.21,0,0,1,34.73,7.64v2.88h16a.68.68,0,1,1,0,1.36Z" fill="#80d8ff"/>
    <path id="upper-sm" d="M376.77,41.85H331.25a.68.68,0,1,1,0-1.36h45.53a.68.68,0,1,1,0,1.36Z" fill="#80d8ff"/>
  </g>
  <g class="move">
    <rect x="447.35" y="167.02" width="10.39" height="2.96" rx="0.94" ry="0.94" transform="translate(178.38 -229.02) rotate(34.98)" fill="#fff"/>
    <rect x="447.35" y="167.02" width="10.39" height="2.96" rx="0.94" ry="0.94" transform="translate(55.02 442.66) rotate(-55.02)" fill="#fff"/>
  </g>
  <g class="clouds">
    <path id="lower-lg" d="M517.38,67.13H505.2a.47.47,0,0,1-.47-.47V64a12.36,12.36,0,0,0-23.79-4.72.47.47,0,0,1-.67.23,6.69,6.69,0,0,0-10,7,.47.47,0,0,1-.46.56H458.78a.47.47,0,1,1,0-.94h10.51a7.31,7.31,0,0,1,0-.84,7.63,7.63,0,0,1,11-6.85A13.3,13.3,0,0,1,505.67,64v2.13h11.72a.47.47,0,1,1,0,.94Z" fill="#80d8ff"/>
    <path id="lower-sm" d="M471.84,72.14H438.5a.47.47,0,1,1,0-.94h33.33a.47.47,0,1,1,0,.94Z" fill="#80d8ff"/>
  </g>
</svg>
